<?xml version="1.0" encoding="utf-8"?>
<!-- Generator: Adobe Illustrator 23.0.2, SVG Export Plug-In . SVG Version: 6.00 Build 0)  -->
<svg version="1.1" id="Layer_1" xmlns="http://www.w3.org/2000/svg" xmlns:xlink="http://www.w3.org/1999/xlink" x="0px" y="0px"
	 viewBox="0 0 14 14" style="enable-background:new 0 0 14 14;" xml:space="preserve">
<style type="text/css">
	.st0{fill:#575757;}
	.st1{fill:#575757;}
	.st2{fill:#575757;}
</style>
<g>
	<path class="st0" d="M2,14h10V5.5H2V14z M8.5,8c0-0.3,0.2-0.5,0.5-0.5S9.5,7.7,9.5,8v4c0,0.3-0.2,0.5-0.5,0.5S8.5,12.3,8.5,12V8z
		 M6.5,8c0-0.3,0.2-0.5,0.5-0.5S7.5,7.7,7.5,8v4c0,0.3-0.2,0.5-0.5,0.5S6.5,12.3,6.5,12V8z M4.5,8c0-0.3,0.2-0.5,0.5-0.5
		S5.5,7.7,5.5,8v4c0,0.3-0.2,0.5-0.5,0.5S4.5,12.3,4.5,12V8z"/>
	<path class="st0" d="M9,2V1V0H8H6H5v1v1H1v1h1v2h10V3h1V2H9z M6,1h2v1H6V1z"/>
</g>
</svg>
